Patient4_TMGait_0pt4_03_right_43_EMG.mot
version=1
nRows=19
nColumns=33
inDegrees=no
endheader
time	1LAddLong	2LGlutMax	3LGlutMed	4LIliopsoas	5LSemiMemb	6LBicFemLong	7LRecFem	8LVastMed	9LVastLat	10LGasMed	11LTibAnt	12lTibPost	13LPeroneusLong	14LSol	15LExtDigLong	16LFlexDigLong	17RAddLong	18RGlutMax	19RGlutMed	20RIliopsoas	21RSemiMemb	22RBicFemLong	23RRecFem	24RVastMed	25RVastLat	26RGasMed	27RTibAnt	28RTibPost	29RPeroneusLong	30RSol	31RExtDigLong	32RFlexDigLong
56.34	0.007324	0.075989	0.12726	-0.014191	0.007324	0.002441	-0.002899	0.000916	0.00473	0.11887	0.016174	-0.058899	0.023956	0.030365	-0.030518	0.57571	-0.007629	-0.061188	0.017853	0.084839	-0.001221	-0.063782	-0.053101	0.045776	0.030365	-0.025635	-0.072632	-0.001678	0.039978	-0.08667	0.001373	-0.031433
56.341	0.005798	0.040741	0.11704	0.006409	0.000763	0.005188	-0.011139	-0.00061	0.005341	-0.1683	0.009308	0.096741	-0.027008	-0.39063	-0.014801	0.20844	0.00061	-0.075989	0.071716	0.083313	0.012817	-0.086823	0.065308	0.037231	0.012512	-0.03067	-0.70267	0.002441	0.57739	-0.099792	-0.00412	-0.031738
56.342	0.005951	0.040283	0.12863	-0.006256	-0.008087	0.003052	-0.000916	0.005188	0.011292	-0.17151	-0.006256	-0.002594	-0.020599	-0.57465	0.003967	0.29526	0.009613	-0.065155	-0.15549	0.09552	0.005493	-0.079193	0.093536	0.048828	0.013428	-0.038147	-0.3241	-0.002747	0.41504	-0.088196	-0.001373	-0.020142
56.343	0.00473	0.046387	0.17868	0.006714	-0.03479	0.024567	-0.005035	0.001984	0.014343	-0.098877	0.012817	-0.019684	-0.027618	-0.4599	-0.028687	0.42099	0.00946	-0.088348	-0.28625	0.0354	0.012054	-0.085144	0.044403	0.002594	0.010834	-0.038147	-0.016022	0.001221	0.16678	-0.11887	0.00061	-0.021973
56.344	0.007477	0.041962	0.095978	-0.004883	-0.010376	-0.015106	0.006866	0.00412	0.007935	-0.055695	0.002899	-0.071716	-0.012207	-0.11658	-0.033722	0.18021	0.003052	-0.098877	0.035858	-0.088501	0.014343	-0.094299	-0.038452	-0.044708	0.009766	-0.0354	0.12817	0.002594	0.01709	-0.12543	-0.001373	-0.006714
56.345	0.010529	0.048523	-0.009766	-0.011444	0.036621	-0.027771	-0.005341	0.003967	0.024261	-0.078888	0.000763	-0.063477	0.026703	0.10132	-0.005798	-0.045624	0.007935	-0.085754	0.080719	-0.21286	0	-0.11032	-0.045624	0.010071	0.000153	-0.029297	0.21072	0.003204	-0.030975	-0.13718	-0.007172	-0.011597
56.346	0.019226	0.012817	-0.060425	0.014801	0.039978	-0.041046	0.012665	0.001068	0.026398	-0.085602	-0.002594	0.30548	0.071564	0.14343	-0.002747	-0.32303	-0.003204	-0.079803	0.32059	-0.23346	0.007324	-0.1236	-0.074158	-0.04303	0.010681	-0.022125	0.33768	-0.001526	-0.08667	-0.18478	-0.003052	-0.001221
56.347	0.009155	0.032501	0.004578	0.017395	0.034637	-0.021057	-0.00473	0.002136	0.02533	-0.032806	-0.014191	-0.024414	0.072632	0.25848	0.024414	-0.11139	0.001526	-0.032501	0.90546	-0.22644	0.003052	-0.1149	-0.053101	-0.036469	0.010986	-0.020447	0.36072	-0.003815	-0.10895	-0.046234	-0.003052	0.006104
56.348	0.011902	0.044708	0.11505	0.013123	0.023193	-0.02182	-0.00473	0.014343	0.01358	0.081635	0.001373	-0.028534	0.08316	0.26642	0.002594	0.28336	0.016785	-0.097046	0.94528	-0.10147	0.008698	-0.12405	-0.078278	-0.044403	0.00824	-0.01236	0.066223	-0.005341	-0.14526	-0.037842	-0.007019	0.009613
56.349	0.007629	0.011597	-0.007782	0.019073	0.023956	-0.000458	-0.005188	0.004578	0.026855	0.12283	-0.006714	-0.052948	0.042572	-0.083466	-0.02655	-0.22263	-0.000763	-0.080109	0.24857	0.09201	0.00412	-0.13947	-0.092773	-0.032501	0.017853	0.006714	-0.2533	-0.001068	-0.073853	0.10376	-0.001221	0.007629
56.35	0.007172	-0.020447	-0.03418	0.023499	0.014038	-0.019989	-0.004272	0.003815	-0.004883	0.079346	-0.066071	-0.036163	0.007782	-0.07782	0.023804	0.006409	0.000458	-0.042267	-0.085907	0.15167	-0.002136	-0.15991	-0.055542	-0.041504	0.016022	0.027924	-0.18005	-0.003357	-0.03952	0.13443	-0.004578	0.011749
56.351	0.010681	-0.033569	0.007782	0.008087	0.018311	-0.014343	0.004578	0.002899	-0.024109	0.04776	-0.082092	-0.004272	-0.067444	-0.010376	0.11047	1.0197	0.000305	-0.055695	-0.69397	0.2327	0.005646	-0.15884	-0.054016	-0.028076	0.014191	0.042572	-0.096588	-0.000458	-0.091248	-0.009766	0.001068	0.013275
56.352	0.006866	-0.075836	-0.002441	-0.000153	0.016785	-0.005951	-0.021667	0.008087	-0.16373	0.030212	-0.06897	-0.007935	-0.084229	0.18631	0.08728	-0.2507	-0.003815	-0.078583	-0.75058	-0.013275	-0.004883	-0.15457	-0.006561	-0.014191	0.028381	0.071106	0.14923	-0.003204	-0.14252	-0.13321	-0.000916	0.012512
56.353	0.007782	-0.064545	-0.031281	-0.011139	0.017242	-0.020905	-0.054321	0.006561	-0.05661	0.003967	-0.016937	0.007324	-0.023651	0.28168	0.069885	-0.12299	0.005798	-0.013428	-0.88852	-0.31113	-0.002899	-0.15778	-0.026855	-0.01709	0.005493	0.092163	0.13825	-0.000916	-0.16541	-0.09201	0.002441	0.015259
56.354	0.011749	-0.029144	0.066071	0.001221	0.018616	-0.00824	-0.030975	0.00061	-0.063019	-0.030975	0.034637	-0.00061	0.054016	0.26001	-0.039063	0.13306	-0.000153	0.053864	-0.76477	-0.28656	0.000153	-0.13123	-0.03067	-0.054474	0.014648	0.10803	0.10025	0.000153	-0.047302	-0.010071	-0.005798	0.011597
56.355	0.01236	-0.063019	-0.006561	0.016327	0.013123	-0.006866	0	0.010223	-0.081177	-0.029602	0.042267	-0.011444	0.040741	0.24933	-0.007019	0.22095	0.001526	0.042572	-0.66605	-0.11078	-0.002441	-0.12512	-0.058899	-0.031433	0.002136	0.11337	-0.054474	0.001068	0.14236	-0.044403	0.000153	0.007935
56.356	0.013885	-0.086212	-0.016022	0.01358	0.016022	-0.002136	-0.011292	0.001068	-0.002441	-0.035858	0.034637	-0.002289	-0.016174	0.19257	-0.010529	-0.060883	0.001831	0.037231	1.1285	0.03891	0.00885	-0.098419	-0.027618	-0.062103	0.00824	0.10925	-0.38589	0.000458	0.1831	-0.076599	0.000305	0.005951
56.357	0.009308	-0.112	0.039825	0.008392	0.015564	-0.016937	-0.047913	0.005188	0.044403	-0.049896	-0.004425	-0.005798	-0.064392	0.072327	-0.036774	-0.068665	0.012512	-0.05249	1.4059	0.44357	0.001678	-0.080109	-0.028992	-0.062714	0.019073	0.093231	-0.17517	-0.005646	0.11078	-0.028534	-0.008545	0.00885
56.358	0.015259	-0.097504	0.06546	0.004578	0.010071	-0.006561	-0.05722	0.012054	0.039368	-0.087433	-0.028687	0.003967	-0.035248	-0.11444	-0.040741	-0.042419	0.00412	-0.11658	0.63446	0.62057	-0.000458	-0.069122	-0.027161	-0.049438	0.023499	0.073547	0.17456	-0.000458	0.050201	-0.000153	-0.001221	0.010071
